<?xml version="1.0" encoding="UTF-8" standalone="no"?>
<svg
   xmlns:dc="http://purl.org/dc/elements/1.1/"
   xmlns:cc="http://creativecommons.org/ns#"
   xmlns:rdf="http://www.w3.org/1999/02/22-rdf-syntax-ns#"
   xmlns:svg="http://www.w3.org/2000/svg"
   xmlns="http://www.w3.org/2000/svg"
   xmlns:sodipodi="http://sodipodi.sourceforge.net/DTD/sodipodi-0.dtd"
   xmlns:inkscape="http://www.inkscape.org/namespaces/inkscape"
   width="1800"
   height="200"
   viewBox="0 0 476.24999 52.916668"
   version="1.1"
   id="svg1470"
   sodipodi:docname="banner-readme.svg"
   inkscape:version="1.0.2 (e86c870879, 2021-01-15, custom)"
   inkscape:export-filename="C:\Users\tony.masse\OneDrive - LogRhythm, Inc\Tony.Masse\Projets\20210614.jsBeat\jsBeat\medias\banner-readme-512.png"
   inkscape:export-xdpi="27.309999"
   inkscape:export-ydpi="27.309999">
  <defs
     id="defs1464" />
  <sodipodi:namedview
     id="base"
     pagecolor="#ffffff"
     bordercolor="#666666"
     borderopacity="1.0"
     inkscape:pageopacity="0.0"
     inkscape:pageshadow="2"
     inkscape:zoom="1"
     inkscape:cx="900"
     inkscape:cy="100"
     inkscape:document-units="mm"
     inkscape:current-layer="layer1"
     inkscape:document-rotation="0"
     showgrid="false"
     units="px"
     inkscape:window-width="3840"
     inkscape:window-height="2097"
     inkscape:window-x="1912"
     inkscape:window-y="1072"
     inkscape:window-maximized="1" />
  <metadata
     id="metadata1467">
    <rdf:RDF>
      <cc:Work
         rdf:about="">
        <dc:format>image/svg+xml</dc:format>
        <dc:type
           rdf:resource="http://purl.org/dc/dcmitype/StillImage" />
        <dc:title></dc:title>
      </cc:Work>
    </rdf:RDF>
  </metadata>
  <g
     inkscape:label="Layer 1"
     inkscape:groupmode="layer"
     id="layer1">
    <rect
       style="font-variation-settings:normal;vector-effect:none;fill:#000000;fill-opacity:1;stroke:none;stroke-width:13.0435;stroke-linecap:butt;stroke-linejoin:miter;stroke-miterlimit:4;stroke-dasharray:none;stroke-dashoffset:0;stroke-opacity:1;paint-order:stroke fill markers;stop-color:#000000"
       id="rect2424"
       width="311.78989"
       height="10.892238"
       x="162.89308"
       y="20.460455" />
    <g
       aria-label="jsBeat"
       id="g2402"
       style="font-style:normal;font-variant:normal;font-weight:normal;font-stretch:normal;font-size:33.966px;line-height:1.25;font-family:'Frutiger Light Condensed';-inkscape-font-specification:'Frutiger Light Condensed, ';letter-spacing:0px;word-spacing:0px;fill:#000000;fill-opacity:1;stroke:#ffffff;stroke-width:4.8;stroke-linecap:butt;stroke-linejoin:round;stroke-miterlimit:4;stroke-dasharray:none;stroke-opacity:1;paint-order:stroke fill markers"
       transform="matrix(0.32293322,0,0,0.32293322,46.81887,-0.88336)">
      <path
         d="M 209.90837,74.040988 V 91.77124 q 0,0.84915 -0.40759,1.52847 -0.4076,0.67932 -1.39261,0.67932 -0.78122,0 -1.39261,-0.237762 v 4.993002 q 1.12088,0.271728 2.44556,0.407592 1.32467,0.135864 2.75124,0.135864 1.42657,0 2.61538,-0.407592 1.22278,-0.373626 2.07193,-1.222776 0.88312,-0.815184 1.35864,-2.105892 0.50949,-1.256742 0.50949,-2.989008 v -18.51147 z m 0,-7.778214 v 5.910084 h 8.55943 v -5.910084 z"
         style="font-style:normal;font-variant:normal;font-weight:normal;font-stretch:normal;font-family:'Frutiger LT 95 UltraBlack';-inkscape-font-specification:'Frutiger LT 95 UltraBlack, ';stroke:#ffffff;stroke-width:4.8;stroke-linecap:butt;stroke-linejoin:round;stroke-miterlimit:4;stroke-dasharray:none;stroke-opacity:1;paint-order:stroke fill markers"
         id="path2390" />
      <path
         d="m 221.25299,91.125886 q 1.83416,0.475524 3.66833,0.747252 1.86813,0.271728 3.73626,0.271728 1.52847,0 3.22677,-0.305694 1.73226,-0.271728 3.1928,-0.985014 1.46054,-0.747252 2.41159,-1.970028 0.98501,-1.256742 0.98501,-3.158838 0,-1.664334 -0.74725,-2.649348 -0.71329,-0.985014 -1.83417,-1.52847 -1.08691,-0.577422 -2.37762,-0.815184 -1.2907,-0.237762 -2.41158,-0.373626 -1.08691,-0.16983 -1.83417,-0.33966 -0.71328,-0.203796 -0.71328,-0.67932 0,-0.407592 0.23776,-0.645354 0.27173,-0.237762 0.67932,-0.373626 0.44156,-0.135864 0.95105,-0.16983 0.54345,-0.03397 1.08691,-0.03397 1.46054,0 2.81918,0.271728 1.3926,0.271728 2.75124,0.747252 v -4.75524 q -1.5964,-0.33966 -3.1928,-0.543456 -1.56244,-0.203796 -3.1928,-0.203796 -1.59641,0 -3.36264,0.237762 -1.73226,0.203796 -3.1928,0.84915 -1.46054,0.645354 -2.44555,1.834164 -0.95105,1.154844 -0.95105,3.05694 0,1.6983 0.71328,2.751246 0.74726,1.01898 1.83417,1.596402 1.12088,0.577422 2.41158,0.84915 1.29071,0.271728 2.37762,0.475524 1.12088,0.16983 1.83417,0.441558 0.74725,0.237762 0.74725,0.781218 0,0.33966 -0.30569,0.577422 -0.27173,0.203796 -0.74726,0.33966 -0.44155,0.135864 -0.98501,0.203796 -0.54346,0.03397 -1.08691,0.03397 -1.66434,0 -3.36264,-0.407592 -1.6983,-0.441558 -2.92107,-1.18881 z"
         style="font-style:normal;font-variant:normal;font-weight:normal;font-stretch:normal;font-family:'Frutiger LT 95 UltraBlack';-inkscape-font-specification:'Frutiger LT 95 UltraBlack, ';stroke:#ffffff;stroke-width:4.8;stroke-linecap:butt;stroke-linejoin:round;stroke-miterlimit:4;stroke-dasharray:none;stroke-opacity:1;paint-order:stroke fill markers"
         id="path2392" />
      <path
         d="m 240.74946,91.737274 h 13.75623 q 1.83417,0 3.6004,-0.16983 1.76623,-0.203796 3.12487,-0.883116 1.35864,-0.67932 2.17382,-1.970028 0.84915,-1.324674 0.84915,-3.56643 0,-0.883116 -0.37362,-1.766232 -0.37363,-0.917082 -1.05295,-1.664334 -0.67932,-0.747252 -1.6983,-1.256742 -0.98501,-0.543456 -2.20779,-0.713286 v -0.06793 q 2.37762,-0.611388 3.63436,-1.970028 1.25675,-1.392606 1.25675,-3.838158 0,-1.6983 -0.71329,-2.819178 -0.67932,-1.120878 -1.83416,-1.800198 -1.12088,-0.67932 -2.61539,-0.951048 -1.46053,-0.271728 -2.989,-0.271728 h -14.91108 z m 8.55943,-9.748242 h 2.44556 q 0.64535,0 1.25674,0.101898 0.61139,0.06793 1.08691,0.33966 0.47552,0.271728 0.74725,0.747252 0.3057,0.475524 0.3057,1.222776 0,0.67932 -0.3057,1.154844 -0.30569,0.475524 -0.81518,0.781218 -0.47553,0.271728 -1.12088,0.407592 -0.61139,0.101898 -1.22278,0.101898 h -2.37762 z m 0,-9.476514 h 2.47952 q 1.22278,0 2.17383,0.50949 0.95104,0.475524 0.95104,1.800198 0,0.67932 -0.30569,1.120878 -0.27173,0.441558 -0.74725,0.713286 -0.47553,0.237762 -1.08691,0.33966 -0.57743,0.101898 -1.18881,0.101898 h -2.27573 z"
         style="font-style:normal;font-variant:normal;font-weight:normal;font-stretch:normal;font-family:'Frutiger LT 95 UltraBlack';-inkscape-font-specification:'Frutiger LT 95 UltraBlack, ';stroke:#ffffff;stroke-width:4.8;stroke-linecap:butt;stroke-linejoin:round;stroke-miterlimit:4;stroke-dasharray:none;stroke-opacity:1;paint-order:stroke fill markers"
         id="path2394" />
      <path
         d="m 274.44373,81.207814 q -0.034,-0.50949 0.034,-1.120878 0.1019,-0.611388 0.33966,-1.120878 0.27173,-0.543456 0.71328,-0.883116 0.47553,-0.373626 1.22278,-0.373626 0.71329,0 1.12088,0.373626 0.44156,0.33966 0.64535,0.883116 0.23776,0.50949 0.3057,1.120878 0.0679,0.611388 0.0679,1.120878 z m 11.85414,3.73626 v -1.052946 q 0,-2.241756 -0.50949,-4.109886 -0.47553,-1.902096 -1.56244,-3.260736 -1.08691,-1.35864 -2.85314,-2.105892 -1.76624,-0.781218 -4.34765,-0.781218 -5.4006,0 -8.18581,2.241756 -2.78521,2.20779 -2.78521,6.691302 0,4.619376 2.78521,7.098894 2.78521,2.479518 8.18581,2.479518 2.24175,0 4.24575,-0.237762 2.00399,-0.237762 3.73626,-0.781218 v -4.58541 q -1.01898,0.543456 -2.54745,0.84915 -1.49451,0.271728 -3.26074,0.271728 -0.95105,0 -1.8002,-0.101898 -0.81518,-0.135864 -1.46053,-0.441558 -0.64536,-0.305694 -1.05295,-0.815184 -0.37363,-0.543456 -0.40759,-1.35864 z"
         style="font-style:normal;font-variant:normal;font-weight:normal;font-stretch:normal;font-family:'Frutiger LT 95 UltraBlack';-inkscape-font-specification:'Frutiger LT 95 UltraBlack, ';stroke:#ffffff;stroke-width:4.8;stroke-linecap:butt;stroke-linejoin:round;stroke-miterlimit:4;stroke-dasharray:none;stroke-opacity:1;paint-order:stroke fill markers"
         id="path2396" />
      <path
         d="m 289.42271,79.611412 q 1.29071,-0.645354 2.81918,-1.052946 1.56243,-0.441558 3.0909,-0.441558 0.81519,0 1.59641,0.101898 0.81518,0.06793 1.46053,0.33966 0.64536,0.237762 1.05295,0.747252 0.40759,0.50949 0.40759,1.35864 -0.57742,-0.06793 -1.52847,-0.135864 -0.91708,-0.101898 -1.8002,-0.101898 -1.5964,0 -3.22677,0.271728 -1.63036,0.237762 -2.95504,0.951048 -1.29071,0.713286 -2.13986,2.003994 -0.81518,1.256742 -0.81518,3.294702 0,1.392606 0.54346,2.37762 0.54345,0.985014 1.46053,1.630368 0.91709,0.611388 2.07193,0.883116 1.18881,0.305694 2.41159,0.305694 1.83416,0 3.36263,-0.713286 1.52847,-0.713286 2.41159,-2.241756 h 0.0679 v 2.54745 h 7.94804 V 80.970052 q 0,-2.411586 -1.01898,-3.872124 -0.98501,-1.460538 -2.58141,-2.20779 -1.56244,-0.781218 -3.4985,-1.01898 -1.9021,-0.237762 -3.73626,-0.237762 -1.25674,0 -2.20779,0.06793 -0.95105,0.03397 -1.8002,0.16983 -0.81518,0.135864 -1.63037,0.33966 -0.81518,0.16983 -1.76623,0.441558 z m 10.42756,4.891104 q 0,0.577422 -0.16983,1.154844 -0.16983,0.543456 -0.50949,1.01898 -0.30569,0.441558 -0.81518,0.713286 -0.50949,0.271728 -1.15485,0.271728 -0.98501,0 -1.4945,-0.373626 -0.50949,-0.407592 -0.50949,-1.324674 0,-0.67932 0.33966,-1.086912 0.33966,-0.407592 0.88312,-0.611388 0.57742,-0.203796 1.22277,-0.237762 0.67932,-0.06793 1.35864,-0.06793 h 0.84915 z"
         style="font-style:normal;font-variant:normal;font-weight:normal;font-stretch:normal;font-family:'Frutiger LT 95 UltraBlack';-inkscape-font-specification:'Frutiger LT 95 UltraBlack, ';stroke:#ffffff;stroke-width:4.8;stroke-linecap:butt;stroke-linejoin:round;stroke-miterlimit:4;stroke-dasharray:none;stroke-opacity:1;paint-order:stroke fill markers"
         id="path2398" />
      <path
         d="m 308.88519,74.040988 v 5.0949 h 3.02297 v 6.11388 q 0,3.532464 1.5964,5.230764 1.63037,1.664334 4.95904,1.664334 1.5964,0 3.02297,-0.271728 1.42657,-0.237762 2.85315,-0.645354 v -5.0949 q -0.91709,0.305694 -2.004,0.305694 -0.84915,0 -1.35864,-0.577422 -0.50949,-0.611388 -0.50949,-1.732266 v -4.993002 h 3.87213 v -5.0949 h -3.87213 v -6.691302 l -8.55943,2.615382 v 4.07592 z"
         style="font-style:normal;font-variant:normal;font-weight:normal;font-stretch:normal;font-family:'Frutiger LT 95 UltraBlack';-inkscape-font-specification:'Frutiger LT 95 UltraBlack, ';stroke:#ffffff;stroke-width:4.8;stroke-linecap:butt;stroke-linejoin:round;stroke-miterlimit:4;stroke-dasharray:none;stroke-opacity:1;paint-order:stroke fill markers"
         id="path2400" />
    </g>
    <path
       id="path2404"
       style="fill:#e81224;fill-opacity:1;stroke:#000000;stroke-width:7.51589;stroke-linecap:butt;stroke-linejoin:miter;stroke-miterlimit:4;stroke-dasharray:none;stroke-opacity:1;paint-order:stroke fill markers"
       d="m 17.070124,4.452772 c -5.811415,0.288642 -10.8128835,6.03175 -10.8128835,11.54177 0,2.677519 0.8397492,5.47813 2.1866584,8.25466 H 5.433844 v 3.345368 h 4.875638 c 6.486205,10.372441 18.484957,19.554334 18.484957,19.554334 0,0 11.998698,-9.182046 18.484956,-19.554334 H 99.235412 V 24.249202 H 49.146277 c 1.346903,-2.77653 2.185359,-5.577141 2.185359,-8.25466 0,-9.280029 -14.185177,-19.222922 -22.537197,-2.651435 C 25.40143,6.610941 21.046362,4.25528 17.070124,4.452772 Z"
       sodipodi:nodetypes="sscccccccccscs" />
    <path
       style="fill:none;stroke:#ef6950;stroke-width:3.47985;stroke-linecap:round;stroke-linejoin:miter;stroke-miterlimit:4;stroke-dasharray:none;stroke-opacity:1"
       d="m 38.786372,9.161883 c 3.849566,-0.702409 7.81212,2.347686 7.930996,6.368506"
       id="path2406"
       sodipodi:nodetypes="cc" />
    <g
       aria-label="JS"
       id="g2412"
       style="font-style:normal;font-variant:normal;font-weight:normal;font-stretch:normal;font-size:6.09115px;line-height:1.25;font-family:'Frutiger Light Condensed';-inkscape-font-specification:'Frutiger Light Condensed, ';letter-spacing:0px;word-spacing:0px;fill:#000000;fill-opacity:1;stroke:#ffffff;stroke-width:1.252;stroke-miterlimit:4;stroke-dasharray:none;stroke-opacity:1;paint-order:stroke fill markers"
       transform="matrix(2.505293,0,0,2.505293,-175.82991,-484.74799)">
      <path
         d="m 73.361813,209.27466 h 1.350284 v 2.37043 q 0,0.74652 -0.133839,1.13614 -0.130864,0.38962 -0.532381,0.66027 -0.398542,0.27066 -1.023122,0.27066 -0.660271,0 -1.023123,-0.17846 -0.362852,-0.17845 -0.562123,-0.52048 -0.196297,-0.34501 -0.231987,-0.85062 l 1.287826,-0.17548 q 0.003,0.2885 0.05056,0.42829 0.04759,0.13978 0.160607,0.22604 0.07733,0.0565 0.22009,0.0565 0.226039,0 0.330136,-0.16656 0.107071,-0.16953 0.107071,-0.56807 z"
         style="font-style:normal;font-variant:normal;font-weight:900;font-stretch:normal;font-family:Arial;-inkscape-font-specification:'Arial Heavy';stroke:#ffffff;stroke-width:1.252;stroke-miterlimit:4;stroke-dasharray:none;stroke-opacity:1;paint-order:stroke fill markers"
         id="path2408" />
      <path
         d="m 75.375342,212.19234 1.281878,-0.0803 q 0.04164,0.31229 0.169529,0.47587 0.208194,0.2647 0.594839,0.2647 0.288497,0 0.443155,-0.13384 0.157632,-0.13681 0.157632,-0.31526 0,-0.16953 -0.148709,-0.30337 -0.14871,-0.13384 -0.690014,-0.2528 -0.886309,-0.19928 -1.264032,-0.52941 -0.380697,-0.33014 -0.380697,-0.8417 0,-0.33608 0.193323,-0.6335 0.196296,-0.30039 0.585916,-0.46992 0.392594,-0.17251 1.073684,-0.17251 0.835749,0 1.272955,0.31229 0.440181,0.30932 0.523458,0.98744 l -1.269981,0.0743 q -0.05056,-0.29444 -0.214142,-0.42828 -0.160606,-0.13384 -0.446129,-0.13384 -0.234961,0 -0.353929,0.10112 -0.118968,0.0982 -0.118968,0.24091 0,0.1041 0.09815,0.18737 0.09517,0.0863 0.452077,0.16061 0.883336,0.19035 1.264033,0.38665 0.383671,0.19332 0.556174,0.48182 0.175478,0.28849 0.175478,0.6454 0,0.41936 -0.231987,0.77329 -0.231988,0.35393 -0.648375,0.53833 -0.416387,0.18142 -1.04989,0.18142 -1.112349,0 -1.540633,-0.42828 -0.428284,-0.42829 -0.484794,-1.08856 z"
         style="font-style:normal;font-variant:normal;font-weight:900;font-stretch:normal;font-family:Arial;-inkscape-font-specification:'Arial Heavy';stroke:#ffffff;stroke-width:1.252;stroke-miterlimit:4;stroke-dasharray:none;stroke-opacity:1;paint-order:stroke fill markers"
         id="path2410" />
    </g>
    <path
       d="m 26.793509,40.977176 h -0.183136 c -0.793359,-0.05562 -1.46466,-0.613346 -1.647754,-1.338228 l -4.210897,-20.408116 -2.624194,7.248789 c -0.244091,0.669114 -0.915401,1.115156 -1.708765,1.115156 H 5.433787 v -3.345568 h 9.642377 l 4.455,-12.211399 c 0.244115,-0.724907 1.037484,-1.170999 1.830828,-1.115206 0.793361,0.05562 1.525691,0.613345 1.647756,1.338227 l 4.271928,20.909952 6.224821,-15.055157 c 0.305152,-0.669139 0.976458,-1.115207 1.769824,-1.059414 0.793334,0.05562 1.464657,0.50181 1.708763,1.226667 l 3.478564,10.427155 3.905785,-3.903197 c 0.366166,-0.334582 0.85437,-0.557628 1.342601,-0.557628 H 99.23508 v 3.345568 H 46.5054 l -5.553523,5.576006 c -0.427197,0.446092 -1.098498,0.613371 -1.769799,0.501835 -0.671301,-0.111485 -1.159527,-0.557578 -1.342599,-1.170924 l -2.746257,-8.587042 -6.590985,16.003085 c -0.244091,0.613371 -0.976435,1.059439 -1.708765,1.059439 z"
       stroke-width="0.583357"
       fill="#00cc99"
       id="path2414"
       style="fill:#fce100;fill-opacity:1"
       sodipodi:nodetypes="cccccsccccccccccccscccccccccc" />
    <rect
       style="font-variation-settings:normal;vector-effect:none;fill:#fce100;fill-opacity:1;stroke:none;stroke-width:13.3981;stroke-linecap:butt;stroke-linejoin:miter;stroke-miterlimit:4;stroke-dasharray:none;stroke-dashoffset:0;stroke-opacity:1;paint-order:stroke fill markers;stop-color:#000000"
       id="rect2484"
       width="304.23486"
       height="3.4449461"
       x="166.6031"
       y="24.199415" />
    <rect
       style="font-variation-settings:normal;vector-effect:none;fill:#000000;fill-opacity:1;stroke:none;stroke-width:7.41632;stroke-linecap:butt;stroke-linejoin:miter;stroke-miterlimit:4;stroke-dasharray:none;stroke-dashoffset:0;stroke-opacity:1;paint-order:stroke fill markers;stop-color:#000000"
       id="rect2486"
       width="3.7092488"
       height="5.1222959"
       x="418.34698"
       y="23.227674" />
    <rect
       style="font-variation-settings:normal;vector-effect:none;fill:#000000;fill-opacity:1;stroke:none;stroke-width:7.41632;stroke-linecap:butt;stroke-linejoin:miter;stroke-miterlimit:4;stroke-dasharray:none;stroke-dashoffset:0;stroke-opacity:1;paint-order:stroke fill markers;stop-color:#000000"
       id="rect2488"
       width="3.7092488"
       height="5.1222959"
       x="438.47699"
       y="23.227674" />
    <rect
       style="font-variation-settings:normal;vector-effect:none;fill:#000000;fill-opacity:1;stroke:none;stroke-width:7.41632;stroke-linecap:butt;stroke-linejoin:miter;stroke-miterlimit:4;stroke-dasharray:none;stroke-dashoffset:0;stroke-opacity:1;paint-order:stroke fill markers;stop-color:#000000"
       id="rect2490"
       width="3.7092488"
       height="5.1222959"
       x="450.19012"
       y="23.227674" />
    <rect
       style="font-variation-settings:normal;vector-effect:none;fill:#000000;fill-opacity:1;stroke:none;stroke-width:7.41632;stroke-linecap:butt;stroke-linejoin:miter;stroke-miterlimit:4;stroke-dasharray:none;stroke-dashoffset:0;stroke-opacity:1;paint-order:stroke fill markers;stop-color:#000000"
       id="rect2492"
       width="3.7092488"
       height="5.1222959"
       x="465.84915"
       y="23.227674" />
    <rect
       style="font-variation-settings:normal;vector-effect:none;fill:#000000;fill-opacity:1;stroke:none;stroke-width:7.41632;stroke-linecap:butt;stroke-linejoin:miter;stroke-miterlimit:4;stroke-dasharray:none;stroke-dashoffset:0;stroke-opacity:1;paint-order:stroke fill markers;stop-color:#000000"
       id="rect2494"
       width="3.7092488"
       height="5.1222959"
       x="459.06308"
       y="23.227674" />
  </g>
</svg>
